<svg xmlns="http://www.w3.org/2000/svg" xmlns:xlink="http://www.w3.org/1999/xlink" viewBox="0 0 200 200"><defs><linearGradient id="a"><stop offset="0" style="stop-color:#d4f38b;stop-opacity:.7491166"/><stop offset="1" style="stop-color:#b4ecc2;stop-opacity:.97173142"/></linearGradient><linearGradient xlink:href="#a" id="b" x1="89.22" x2="115.445" y1="0" y2="200" gradientUnits="userSpaceOnUse"/></defs><rect width="191.875" height="191.875" x="4.063" y="4.063" ry="46.068" style="fill:url(#b);stroke:#616161;stroke-width:8.12511;stroke-opacity:.11142061;fill-opacity:1"/><g stroke="rgba(48,80,28,.75)" style="fill:#0f0;stroke:#005558;stroke-opacity:.605678"><path stroke-width="1.873" d="m122.378 134.115-2.765 2.161" class="line" style="fill:#0f0;stroke:#005558;stroke-opacity:.605678" transform="translate(0 -2)"/><path stroke-width="2.442" d="m125.54 139.174-3.162-5.059" class="line" style="fill:#0f0;stroke:#005558;stroke-opacity:.605678" transform="translate(0 -2)"/><path stroke-width="3.185" d="m116.424 143.62 9.116-4.446" class="line" style="fill:#0f0;stroke:#005558;stroke-opacity:.605678" transform="translate(0 -2)"/><path stroke-width="4.152" d="m110.528 127.419 5.896 16.201" class="line" style="fill:#0f0;stroke:#005558;stroke-opacity:.605678" transform="translate(0 -2)"/><path stroke-width="5.414" d="m138.967 120.328-28.439 7.091" class="line" style="fill:#0f0;stroke:#005558;stroke-opacity:.605678" transform="translate(0 -2)"/><path stroke-width="7.059" d="m145.901 169.67-6.934-49.342" class="line" style="fill:#0f0;stroke:#005558;stroke-opacity:.605678" transform="translate(0 -2)"/><path stroke-width="9.204" d="m61.247 172.626 84.654-2.956" class="line" style="fill:#0f0;stroke:#005558;stroke-opacity:.605678" transform="translate(0 -2)"/><path stroke-width="12" d="M71.292 28.977 61.247 172.626" class="line" style="fill:#0f0;stroke:#005558;stroke-opacity:.605678" transform="translate(0 -2)"/><path stroke-width="5.414" d="m42 30 29.292-1.023" class="line" style="fill:#0f0;stroke:#005558;stroke-opacity:.605678" transform="translate(0 -2)"/></g><g stroke="rgba(48,80,28,.75)" style="fill:#0f0;stroke:#3a0054;stroke-opacity:.75602412"><path stroke-width="1.873" d="m122.378 134.115-2.765 2.161" class="line" style="fill:#0f0;stroke:#3a0054;stroke-opacity:.52367687" transform="translate(2.555 .237)"/><path stroke-width="2.442" d="m125.54 139.174-3.162-5.059" class="line" style="fill:#0f0;stroke:#3a0054;stroke-opacity:.52367687" transform="translate(2.555 .237)"/><path stroke-width="3.185" d="m116.424 143.62 9.116-4.446" class="line" style="fill:#0f0;stroke:#3a0054;stroke-opacity:.56267411" transform="translate(2.555 .237)"/><path stroke-width="4.152" d="m110.528 127.419 5.896 16.201" class="line" style="fill:#0f0;stroke:#3a0054;stroke-opacity:.56267411" transform="translate(2.555 .237)"/><path stroke-width="5.414" d="m138.967 120.328-28.439 7.091" class="line" style="fill:#0f0;stroke:#3a0054;stroke-opacity:.6740948" transform="translate(2.555 .237)"/><path stroke-width="7.059" d="m145.901 169.67-6.934-49.342" class="line" style="fill:#0f0;stroke:#3a0054;stroke-opacity:.6740948" transform="translate(2.555 .237)"/><path stroke-width="9.204" d="m61.247 172.626 84.654-2.956" class="line" style="fill:#0f0;stroke:#3a0054;stroke-opacity:.75602412" transform="translate(2.555 .237)"/><path stroke-width="12" d="M71.292 28.977 61.247 172.626" class="line" style="fill:#0f0;stroke:#3a0054;stroke-opacity:.75602412" transform="translate(2.555 .237)"/><path stroke-width="5.414" d="m42 30 29.292-1.023" class="line" style="fill:#0f0;stroke:#3a0054;stroke-opacity:.75602412" transform="translate(2.555 .237)"/></g></svg>